<svg xmlns="http://www.w3.org/2000/svg" xmlns:xlink="http://www.w3.org/1999/xlink" width="27" height="27" viewBox="0 0 27 27">
  <defs>
    <clipPath id="clip-path">
      <rect id="Rectángulo_32" data-name="Rectángulo 32" width="27" height="27" fill="#6b1572"/>
    </clipPath>
  </defs>
  <g id="Grupo_14" data-name="Grupo 14" clip-path="url(#clip-path)">
    <path id="Trazado_16" data-name="Trazado 16" d="M0,23.189V3.81A3.818,3.818,0,0,1,3.81,0H23.19A3.819,3.819,0,0,1,27,3.81V23.19A3.819,3.819,0,0,1,23.19,27H3.81A3.817,3.817,0,0,1,0,23.189ZM19.71,12.42H14.579V7.289a1.08,1.08,0,0,0-2.16,0v5.13H7.289a1.08,1.08,0,0,0,0,2.16h5.13v5.13a1.08,1.08,0,0,0,2.16,0V14.579h5.13A1.08,1.08,0,0,0,19.71,12.42ZM2.159,3.81V23.19A1.657,1.657,0,0,0,3.809,24.84H23.189a1.657,1.657,0,0,0,1.649-1.649V3.81A1.657,1.657,0,0,0,23.189,2.16H3.81A1.656,1.656,0,0,0,2.159,3.81Z" fill="#6b1572" fill-rule="evenodd"/>
  </g>
</svg>
