<svg xmlns="http://www.w3.org/2000/svg" xmlns:xlink="http://www.w3.org/1999/xlink" width="239.195" height="45.543" viewBox="0 0 239.195 45.543">
  <defs>
    <clipPath id="clip-path">
      <rect id="Rectángulo_34" data-name="Rectángulo 34" width="239.195" height="45.543" fill="none"/>
    </clipPath>
  </defs>
  <g id="Grupo_20" data-name="Grupo 20" transform="translate(0 0)">
    <g id="Grupo_19" data-name="Grupo 19" transform="translate(0 0)" clip-path="url(#clip-path)">
      <path id="Trazado_19" data-name="Trazado 19" d="M0,2.252H7.974V40.673H0ZM16.777,12.608a12.905,12.905,0,0,1,6.86,1.787,12.361,12.361,0,0,1,4.583,5A16.162,16.162,0,0,1,29.877,26.9a16.041,16.041,0,0,1-1.6,7.353,11.948,11.948,0,0,1-4.505,4.918,12.914,12.914,0,0,1-6.834,1.761,11.15,11.15,0,0,1-6.214-1.684,10.783,10.783,0,0,1-3.987-4.867,18.49,18.49,0,0,1-1.4-7.482,19.42,19.42,0,0,1,1.373-7.664,10.84,10.84,0,0,1,3.935-4.919,10.8,10.8,0,0,1,6.136-1.709m-1.865,6.214a6.535,6.535,0,0,0-3.6,1.01A6.848,6.848,0,0,0,8.855,22.6a9.029,9.029,0,0,0-.881,4.09,9.2,9.2,0,0,0,.881,4.117,6.523,6.523,0,0,0,6.058,3.753,6.625,6.625,0,0,0,3.625-.984,6.515,6.515,0,0,0,2.408-2.77,9.436,9.436,0,0,0,.854-4.117,9.313,9.313,0,0,0-.854-4.065,6.7,6.7,0,0,0-2.408-2.8,6.5,6.5,0,0,0-3.625-1.01" transform="translate(0 -0.595)" fill="#1a1818"/>
      <path id="Trazado_20" data-name="Trazado 20" d="M59.507,16.327a16.645,16.645,0,0,1,7.819,1.76,12.8,12.8,0,0,1,5.229,4.945,14.44,14.44,0,0,1,1.865,7.43,14.577,14.577,0,0,1-1.865,7.456,12.727,12.727,0,0,1-5.229,4.97,16.627,16.627,0,0,1-7.819,1.761,16.778,16.778,0,0,1-7.845-1.761,12.682,12.682,0,0,1-5.255-4.97,14.577,14.577,0,0,1-1.865-7.456,14.44,14.44,0,0,1,1.865-7.43,12.75,12.75,0,0,1,5.255-4.945,16.8,16.8,0,0,1,7.845-1.76m0,6.369a6.763,6.763,0,0,0-3.65.984A6.626,6.626,0,0,0,53.4,26.45a9.189,9.189,0,0,0-.88,4.115,9.193,9.193,0,0,0,.88,4.117,6.809,6.809,0,0,0,2.46,2.8,6.628,6.628,0,0,0,3.65,1.01,6.5,6.5,0,0,0,3.625-1.01,6.883,6.883,0,0,0,2.433-2.8,9.193,9.193,0,0,0,.881-4.117,9.189,9.189,0,0,0-.881-4.115A6.452,6.452,0,0,0,59.507,22.7" transform="translate(-11.767 -4.314)" fill="#1a1818"/>
      <path id="Trazado_21" data-name="Trazado 21" d="M86.172,16.678h9.113l5.126,8.6,5.437-8.6h8.7l-8.854,13.566,9.475,14.24H106l-5.592-9.269L94.3,44.484H85.5l9.631-14.24Z" transform="translate(-22.587 -4.406)" fill="#1a1818"/>
      <path id="Trazado_22" data-name="Trazado 22" d="M128.254,46.424h43.093V3.331H128.254Zm35.853-5.466h-7.974V25.735a5.987,5.987,0,0,0-1.475-4.3,5.272,5.272,0,0,0-4.013-1.554,5.866,5.866,0,0,0-4.66,2.123,7.948,7.948,0,0,0-1.709,5.23V40.958H136.3V13.152h7.974v4.875a9.815,9.815,0,0,1,3.444-3.606,11.735,11.735,0,0,1,6.188-1.58,10.7,10.7,0,0,1,5.41,1.32,8.954,8.954,0,0,1,3.547,3.7,12.047,12.047,0,0,1,1.242,5.644Z" transform="translate(-33.882 -0.88)" fill="#76187e"/>
      <path id="Trazado_23" data-name="Trazado 23" d="M189.541,13.463h18.227V18.8H189.541Zm3.728-2.641a9.4,9.4,0,0,1,1.4-5.281,8.688,8.688,0,0,1,3.728-3.185A12.241,12.241,0,0,1,203.521,1.3a13.285,13.285,0,0,1,2.823.31,15.626,15.626,0,0,1,2.666.829l-1.19,6.007a15.247,15.247,0,0,0-1.631-.544,6.389,6.389,0,0,0-1.683-.233A4.129,4.129,0,0,0,202.848,8a2.564,2.564,0,0,0-1.218,1.088,3.7,3.7,0,0,0-.439,1.889v29.1h-7.923ZM215.43,0a4.2,4.2,0,0,1,3.133,1.243,4.264,4.264,0,0,1,1.216,3.107,4.261,4.261,0,0,1-1.216,3.107,4.337,4.337,0,0,1-7.431-3.107,4.219,4.219,0,0,1,1.243-3.107A4.154,4.154,0,0,1,215.43,0m-3.987,12.272h7.973V40.078h-7.973Z" transform="translate(-50.073 0)" fill="#1a1818"/>
      <path id="Trazado_24" data-name="Trazado 24" d="M240.557,16.566h7.974V44.372h-7.974Zm19.832,12.583a5.988,5.988,0,0,0-1.476-4.3A5.272,5.272,0,0,0,254.9,23.3a5.867,5.867,0,0,0-4.661,2.123,7.947,7.947,0,0,0-1.709,5.229h-2.019a19.777,19.777,0,0,1,1.424-8.051,10.25,10.25,0,0,1,4.038-4.764,11.743,11.743,0,0,1,6.188-1.579,10.7,10.7,0,0,1,5.411,1.319,8.954,8.954,0,0,1,3.547,3.7,12.047,12.047,0,0,1,1.243,5.644V44.372h-7.974Z" transform="translate(-63.55 -4.295)" fill="#1a1818"/>
      <path id="Trazado_25" data-name="Trazado 25" d="M297.413,12.556a11,11,0,0,1,6.266,1.735,11.157,11.157,0,0,1,3.987,4.893,18.453,18.453,0,0,1,1.4,7.508,19.293,19.293,0,0,1-1.372,7.612,11,11,0,0,1-3.935,4.945,10.682,10.682,0,0,1-6.135,1.734,13.162,13.162,0,0,1-6.913-1.787,12.017,12.017,0,0,1-4.608-5.023,16.519,16.519,0,0,1-1.631-7.533,15.808,15.808,0,0,1,1.631-7.353,12.3,12.3,0,0,1,4.531-4.945,12.668,12.668,0,0,1,6.782-1.787m2.072,6.369a6.624,6.624,0,0,0-3.65,1.01,6.769,6.769,0,0,0-2.46,2.823,9.85,9.85,0,0,0-.932,4.142,9.551,9.551,0,0,0,.932,4.065,6.8,6.8,0,0,0,2.46,2.8,6.623,6.623,0,0,0,3.65,1.01,6.534,6.534,0,0,0,3.6-1.01,6.82,6.82,0,0,0,2.46-2.8,9.079,9.079,0,0,0,.88-4.065,9.322,9.322,0,0,0-.88-4.168,6.813,6.813,0,0,0-2.46-2.8,6.535,6.535,0,0,0-3.6-1.01m6.938-16.674h7.923V40.672h-7.923Z" transform="translate(-75.151 -0.595)" fill="#1a1818"/>
    </g>
  </g>
</svg>
