<svg xmlns="http://www.w3.org/2000/svg" xmlns:xlink="http://www.w3.org/1999/xlink" width="27.048" height="27" viewBox="0 0 27.048 27">
  <defs>
    <clipPath id="clip-path">
      <rect id="Rectángulo_33" data-name="Rectángulo 33" width="27.048" height="27" fill="#6b1572"/>
    </clipPath>
  </defs>
  <g id="Grupo_16" data-name="Grupo 16" clip-path="url(#clip-path)">
    <path id="Trazado_17" data-name="Trazado 17" d="M21.8,10a5.8,5.8,0,1,0,5.8,5.8A5.813,5.813,0,0,0,21.8,10m0,9.66A3.864,3.864,0,1,1,25.66,15.8,3.875,3.875,0,0,1,21.8,19.66" transform="translate(-8.272 -5.17)" fill="#6b1572"/>
    <path id="Trazado_18" data-name="Trazado 18" d="M13.524,0a13.526,13.526,0,0,0-9.66,22.991A12.57,12.57,0,0,0,5.8,24.585,13.231,13.231,0,0,0,13.524,27a13.584,13.584,0,0,0,7.728-2.415,19.886,19.886,0,0,0,1.932-1.594A13.526,13.526,0,0,0,13.524,0m0,25.116a11.5,11.5,0,0,1-7.535-2.8A4.2,4.2,0,0,1,10,19.32h7.1a4.2,4.2,0,0,1,4.009,2.995,11.728,11.728,0,0,1-7.583,2.8m9.032-4.347A6.1,6.1,0,0,0,17.1,17.388H10A6.073,6.073,0,0,0,4.54,20.769a11.274,11.274,0,0,1-2.608-7.245,11.592,11.592,0,1,1,23.184,0,11.507,11.507,0,0,1-2.56,7.245" transform="translate(0 0)" fill="#6b1572"/>
  </g>
</svg>
